<?xml version="1.0" encoding="utf-8" ?>
<svg baseProfile="full" height="1000" version="1.1" width="7500" xmlns="http://www.w3.org/2000/svg" xmlns:ev="http://www.w3.org/2001/xml-events" xmlns:xlink="http://www.w3.org/1999/xlink"><defs /><rect fill="white" height="19.230769230769234" width="100" x="0" y="0" /><rect fill="blue" height="480.7692307692308" width="100" x="0" y="19.230769230769234" /><rect fill="white" height="19.230769230769234" width="100" x="130.0" y="0" /><rect fill="green" height="480.7692307692308" width="100" x="130.0" y="19.230769230769234" /><rect fill="blue" height="500.0" width="100" x="260.0" y="0" /><rect fill="red" height="500.0" width="100" x="390.0" y="0" /><rect fill="black" height="500.0" width="100" x="520.0" y="0" /><rect fill="blue" height="500.0" width="100" x="650.0" y="0" /><rect fill="red" height="500.0" width="100" x="780.0" y="0" /><rect fill="red" height="500.0" width="100" x="910.0" y="0" /><rect fill="green" height="480.7692307692308" width="100" x="1040.0" y="0" /><rect fill="black" height="19.230769230769234" width="100" x="1040.0" y="480.7692307692308" /><rect fill="green" height="480.7692307692308" width="100" x="1170.0" y="0" /><rect fill="black" height="19.230769230769234" width="100" x="1170.0" y="480.7692307692308" /><rect fill="green" height="19.230769230769234" width="100" x="1300.0" y="0" /><rect fill="black" height="480.7692307692308" width="100" x="1300.0" y="19.230769230769234" /><rect fill="green" height="19.230769230769234" width="100" x="1430.0" y="0" /><rect fill="blue" height="480.7692307692308" width="100" x="1430.0" y="19.230769230769234" /><rect fill="black" height="19.230769230769234" width="100" x="1560.0" y="0" /><rect fill="blue" height="480.7692307692308" width="100" x="1560.0" y="19.230769230769234" /><rect fill="blue" height="19.230769230769234" width="100" x="1690.0" y="0" /><rect fill="red" height="480.7692307692308" width="100" x="1690.0" y="19.230769230769234" /><rect fill="blue" height="480.7692307692308" width="100" x="1820.0" y="0" /><rect fill="red" height="19.230769230769234" width="100" x="1820.0" y="480.7692307692308" /><rect fill="white" height="480.7692307692308" width="100" x="1950.0" y="0" /><rect fill="blue" height="19.230769230769234" width="100" x="1950.0" y="480.7692307692308" /><rect fill="green" height="500.0" width="100" x="2080.0" y="0" /><rect fill="green" height="500.0" width="100" x="2210.0" y="0" /><rect fill="red" height="500.0" width="100" x="2340.0" y="0" /><rect fill="green" height="500.0" width="100" x="2470.0" y="0" /><rect fill="green" height="500.0" width="100" x="2600.0" y="0" /><rect fill="green" height="500.0" width="100" x="2730.0" y="0" /><rect fill="black" height="500.0" width="100" x="2860.0" y="0" /><rect fill="blue" height="500.0" width="100" x="2990.0" y="0" /><rect fill="red" height="500.0" width="100" x="3120.0" y="0" /><rect fill="red" height="500.0" width="100" x="3250.0" y="0" /><rect fill="black" height="500.0" width="100" x="3380.0" y="0" /><rect fill="blue" height="500.0" width="100" x="3510.0" y="0" /><rect fill="blue" height="500.0" width="100" x="3640.0" y="0" /><rect fill="red" height="500.0" width="100" x="3770.0" y="0" /><rect fill="red" height="500.0" width="100" x="3900.0" y="0" /><rect fill="black" height="500.0" width="100" x="4030.0" y="0" /><rect fill="green" height="500.0" width="100" x="4160.0" y="0" /><rect fill="black" height="500.0" width="100" x="4290.0" y="0" /><rect fill="red" height="500.0" width="100" x="4420.0" y="0" /><rect fill="black" height="500.0" width="100" x="4550.0" y="0" /><rect fill="green" height="38.46153846153847" width="100" x="4680.0" y="0" /><rect fill="blue" height="461.53846153846155" width="100" x="4680.0" y="38.46153846153847" /><rect fill="black" height="19.230769230769234" width="100" x="4810.0" y="0" /><rect fill="blue" height="38.46153846153847" width="100" x="4810.0" y="19.230769230769234" /><rect fill="red" height="442.30769230769226" width="100" x="4810.0" y="57.6923076923077" /><rect fill="green" height="19.230769230769234" width="100" x="4940.0" y="0" /><rect fill="blue" height="96.15384615384616" width="100" x="4940.0" y="19.230769230769234" /><rect fill="red" height="384.61538461538464" width="100" x="4940.0" y="115.38461538461539" /><rect fill="green" height="96.15384615384616" width="100" x="5070.0" y="0" /><rect fill="black" height="19.230769230769234" width="100" x="5070.0" y="96.15384615384616" /><rect fill="blue" height="211.53846153846155" width="100" x="5070.0" y="115.38461538461539" /><rect fill="red" height="173.07692307692307" width="100" x="5070.0" y="326.9230769230769" /><rect fill="green" height="461.53846153846155" width="100" x="5200.0" y="0" /><rect fill="blue" height="19.230769230769234" width="100" x="5200.0" y="461.53846153846155" /><rect fill="red" height="19.230769230769234" width="100" x="5200.0" y="480.7692307692308" /><rect fill="green" height="480.7692307692308" width="100" x="5330.0" y="0" /><rect fill="blue" height="19.230769230769234" width="100" x="5330.0" y="480.7692307692308" /><rect fill="green" height="19.230769230769234" width="100" x="5460.0" y="0" /><rect fill="black" height="480.7692307692308" width="100" x="5460.0" y="19.230769230769234" /><rect fill="green" height="19.230769230769234" width="100" x="5590.0" y="0" /><rect fill="blue" height="19.230769230769234" width="100" x="5590.0" y="19.230769230769234" /><rect fill="red" height="461.53846153846155" width="100" x="5590.0" y="38.46153846153847" /><rect fill="green" height="423.0769230769231" width="100" x="5720.0" y="0" /><rect fill="black" height="76.92307692307693" width="100" x="5720.0" y="423.0769230769231" /><rect fill="black" height="480.7692307692308" width="100" x="5850.0" y="0" /><rect fill="red" height="19.230769230769234" width="100" x="5850.0" y="480.7692307692308" /><rect fill="white" height="19.230769230769234" width="100" x="5980.0" y="0" /><rect fill="green" height="19.230769230769234" width="100" x="5980.0" y="19.230769230769234" /><rect fill="red" height="461.53846153846155" width="100" x="5980.0" y="38.46153846153847" /><rect fill="white" height="19.230769230769234" width="100" x="6110.0" y="0" /><rect fill="black" height="480.7692307692308" width="100" x="6110.0" y="19.230769230769234" /><rect fill="white" height="480.7692307692308" width="100" x="6240.0" y="0" /><rect fill="red" height="19.230769230769234" width="100" x="6240.0" y="480.7692307692308" /><rect fill="white" height="480.7692307692308" width="100" x="6370.0" y="0" /><rect fill="black" height="19.230769230769234" width="100" x="6370.0" y="480.7692307692308" /></svg>