<?xml version="1.0" encoding="utf-8" ?>
<svg baseProfile="full" height="150" version="1.1" width="2500" xmlns="http://www.w3.org/2000/svg" xmlns:ev="http://www.w3.org/2001/xml-events" xmlns:xlink="http://www.w3.org/1999/xlink"><defs /><text x="0" y="135.0">0</text><rect fill="gray" height="0.683890577507601" width="10" x="0" y="0" /><rect fill="#3e4b94" height="74.25911854103343" width="10" x="0" y="0.683890577507601" /><rect fill="#852a2a" height="0.056990881458966566" width="10" x="0" y="74.94300911854103" /><text x="25.0" y="135.0">1</text><rect fill="gray" height="0.45592705167173675" width="10" x="25.0" y="0" /><rect fill="#f5c31d" height="72.4354103343465" width="10" x="25.0" y="0.45592705167173675" /><rect fill="#3e4b94" height="0.11398176291793313" width="10" x="25.0" y="72.89133738601824" /><rect fill="#852a2a" height="1.9946808510638299" width="10" x="25.0" y="73.00531914893617" /><text x="50.0" y="135.0">2</text><rect fill="gray" height="0.45592705167173675" width="10" x="50.0" y="0" /><rect fill="#f5c31d" height="0.17097264437689969" width="10" x="50.0" y="0.45592705167173675" /><rect fill="#3e4b94" height="74.20212765957447" width="10" x="50.0" y="0.6268996960486364" /><rect fill="#852a2a" height="0.17097264437689969" width="10" x="50.0" y="74.82902735562311" /><text x="75.0" y="135.0">3</text><rect fill="gray" height="0.6268996960486328" width="10" x="75.0" y="0" /><rect fill="#f5c31d" height="60.75227963525836" width="10" x="75.0" y="0.6268996960486328" /><rect fill="#3e4b94" height="0.39893617021276595" width="10" x="75.0" y="61.37917933130699" /><rect fill="#852a2a" height="13.221884498480243" width="10" x="75.0" y="61.77811550151976" /><text x="100.0" y="135.0">4</text><rect fill="gray" height="0.7978723404255289" width="10" x="100.0" y="0" /><rect fill="#f5c31d" height="0.22796352583586627" width="10" x="100.0" y="0.7978723404255289" /><rect fill="#3e4b94" height="4.673252279635259" width="10" x="100.0" y="1.0258358662613951" /><rect fill="#852a2a" height="69.30091185410335" width="10" x="100.0" y="5.699088145896654" /><text x="125.0" y="135.0">5</text><rect fill="gray" height="0.5699088145896647" width="10" x="125.0" y="0" /><rect fill="#3e4b94" height="74.43009118541033" width="10" x="125.0" y="0.5699088145896647" /><text x="150.0" y="135.0">6</text><rect fill="gray" height="0.5129179331306966" width="10" x="150.0" y="0" /><rect fill="#f5c31d" height="74.43009118541033" width="10" x="150.0" y="0.5129179331306966" /><rect fill="#852a2a" height="0.056990881458966566" width="10" x="150.0" y="74.94300911854103" /><text x="175.0" y="135.0">7</text><rect fill="gray" height="1.6527355623100344" width="10" x="175.0" y="0" /><rect fill="#f5c31d" height="71.01063829787233" width="10" x="175.0" y="1.6527355623100344" /><rect fill="#3e4b94" height="0.056990881458966566" width="10" x="175.0" y="72.66337386018236" /><rect fill="#852a2a" height="2.2796352583586628" width="10" x="175.0" y="72.72036474164133" /><text x="200.0" y="135.0">8</text><rect fill="gray" height="54.59726443768997" width="10" x="200.0" y="0" /><rect fill="#f5c31d" height="19.661854103343465" width="10" x="200.0" y="54.59726443768997" /><rect fill="#3e4b94" height="0.22796352583586627" width="10" x="200.0" y="74.25911854103344" /><rect fill="#852a2a" height="0.5129179331306991" width="10" x="200.0" y="74.4870820668693" /><text x="225.0" y="135.0">9</text><rect fill="gray" height="14.817629179331307" width="10" x="225.0" y="0" /><rect fill="#f5c31d" height="59.726443768996965" width="10" x="225.0" y="14.817629179331307" /><rect fill="#3e4b94" height="0.17097264437689969" width="10" x="225.0" y="74.54407294832828" /><rect fill="#852a2a" height="0.28495440729483285" width="10" x="225.0" y="74.71504559270518" /><text x="250.0" y="135.0">10</text><rect fill="gray" height="13.677811550151969" width="10" x="250.0" y="0" /><rect fill="#f5c31d" height="59.726443768996965" width="10" x="250.0" y="13.677811550151969" /><rect fill="#3e4b94" height="0.7408814589665653" width="10" x="250.0" y="73.40425531914893" /><rect fill="#852a2a" height="0.8548632218844985" width="10" x="250.0" y="74.1451367781155" /><text x="275.0" y="135.0">11</text><rect fill="gray" height="3.5904255319148923" width="10" x="275.0" y="0" /><rect fill="#f5c31d" height="0.056990881458966566" width="10" x="275.0" y="3.5904255319148923" /><rect fill="#3e4b94" height="71.0676291793313" width="10" x="275.0" y="3.647416413373859" /><rect fill="#852a2a" height="0.28495440729483285" width="10" x="275.0" y="74.71504559270517" /><text x="300.0" y="135.0">12</text><rect fill="gray" height="1.5957446808510578" width="10" x="300.0" y="0" /><rect fill="#3e4b94" height="73.290273556231" width="10" x="300.0" y="1.5957446808510578" /><rect fill="#852a2a" height="0.11398176291793313" width="10" x="300.0" y="74.88601823708206" /><text x="325.0" y="135.0">13</text><rect fill="gray" height="72.4354103343465" width="10" x="325.0" y="0" /><rect fill="#f5c31d" height="0.45592705167173253" width="10" x="325.0" y="72.4354103343465" /><rect fill="#3e4b94" height="0.056990881458966566" width="10" x="325.0" y="72.89133738601824" /><rect fill="#852a2a" height="2.0516717325227964" width="10" x="325.0" y="72.94832826747721" /><text x="350.0" y="135.0">14</text><rect fill="gray" height="0.6268996960486328" width="10" x="350.0" y="0" /><rect fill="#f5c31d" height="0.056990881458966566" width="10" x="350.0" y="0.6268996960486328" /><rect fill="#3e4b94" height="74.03115501519757" width="10" x="350.0" y="0.6838905775075994" /><rect fill="#852a2a" height="0.28495440729483285" width="10" x="350.0" y="74.71504559270517" /><text x="375.0" y="135.0">15</text><rect fill="gray" height="0.6268996960486328" width="10" x="375.0" y="0" /><rect fill="#f5c31d" height="74.20212765957447" width="10" x="375.0" y="0.6268996960486328" /><rect fill="#852a2a" height="0.17097264437689969" width="10" x="375.0" y="74.82902735562311" /><text x="400.0" y="135.0">16</text><rect fill="gray" height="0.6838905775075926" width="10" x="400.0" y="0" /><rect fill="#f5c31d" height="0.11398176291793313" width="10" x="400.0" y="0.6838905775075926" /><rect fill="#3e4b94" height="74.1451367781155" width="10" x="400.0" y="0.7978723404255258" /><rect fill="#852a2a" height="0.056990881458966566" width="10" x="400.0" y="74.94300911854103" /><text x="425.0" y="135.0">17</text><rect fill="gray" height="0.683890577507601" width="10" x="425.0" y="0" /><rect fill="#f5c31d" height="74.25911854103343" width="10" x="425.0" y="0.683890577507601" /><rect fill="#852a2a" height="0.056990881458966566" width="10" x="425.0" y="74.94300911854103" /><text x="450.0" y="135.0">18</text><rect fill="gray" height="1.1968085106382975" width="10" x="450.0" y="0" /><rect fill="#f5c31d" height="73.57522796352583" width="10" x="450.0" y="1.1968085106382975" /><rect fill="#3e4b94" height="0.22796352583586627" width="10" x="450.0" y="74.77203647416412" /><text x="475.0" y="135.0">19</text><rect fill="gray" height="74.3161094224924" width="10" x="475.0" y="0" /><rect fill="#f5c31d" height="0.45592705167173253" width="10" x="475.0" y="74.3161094224924" /><rect fill="#3e4b94" height="0.11398176291793313" width="10" x="475.0" y="74.77203647416414" /><rect fill="#852a2a" height="0.11398176291793313" width="10" x="475.0" y="74.88601823708207" /><text x="500.0" y="135.0">20</text><rect fill="gray" height="74.1451367781155" width="10" x="500.0" y="0" /><rect fill="#f5c31d" height="0.6838905775075987" width="10" x="500.0" y="74.1451367781155" /><rect fill="#3e4b94" height="0.11398176291793313" width="10" x="500.0" y="74.8290273556231" /><rect fill="#852a2a" height="0.056990881458966566" width="10" x="500.0" y="74.94300911854103" /><text x="525.0" y="135.0">21</text><rect fill="gray" height="74.25911854103343" width="10" x="525.0" y="0" /><rect fill="#f5c31d" height="0.28495440729483285" width="10" x="525.0" y="74.25911854103343" /><rect fill="#3e4b94" height="0.45592705167173253" width="10" x="525.0" y="74.54407294832826" /><text x="550.0" y="135.0">22</text><rect fill="gray" height="0.854863221884497" width="10" x="550.0" y="0" /><rect fill="#f5c31d" height="74.08814589665654" width="10" x="550.0" y="0.854863221884497" /><rect fill="#852a2a" height="0.056990881458966566" width="10" x="550.0" y="74.94300911854104" /><text x="575.0" y="135.0">23</text><rect fill="gray" height="0.7408814589665691" width="10" x="575.0" y="0" /><rect fill="#f5c31d" height="1.5957446808510638" width="10" x="575.0" y="0.7408814589665691" /><rect fill="#3e4b94" height="0.22796352583586627" width="10" x="575.0" y="2.336626139817633" /><rect fill="#852a2a" height="72.4354103343465" width="10" x="575.0" y="2.564589665653499" /><text x="600.0" y="135.0">24</text><rect fill="gray" height="73.6322188449848" width="10" x="600.0" y="0" /><rect fill="#3e4b94" height="1.3677811550151975" width="10" x="600.0" y="73.6322188449848" /></svg>