<?xml version="1.0" encoding="utf-8" ?>
<svg baseProfile="full" height="60" version="1.1" width="5000" xmlns="http://www.w3.org/2000/svg" xmlns:ev="http://www.w3.org/2001/xml-events" xmlns:xlink="http://www.w3.org/1999/xlink"><defs /><text font-size="50" x="0" y="55">    </text><line stroke="black" stroke-width="15" x1="52.5" x2="77.5" y1="25.0" y2="25.0" /><rect fill="blue" fill-opacity="0.25" height="50" stroke="blue" stroke-width="5" width="50" x="105.0" y="5" /><rect fill="green" fill-opacity="0.25" height="50" stroke="green" stroke-width="5" width="50" x="170.0" y="5" /><rect fill="blue" fill-opacity="0.25" height="50" stroke="blue" stroke-width="5" width="50" x="235.0" y="5" /><rect fill="red" fill-opacity="0.25" height="50" stroke="red" stroke-width="5" width="50" x="300.0" y="5" /><rect fill="black" fill-opacity="0.25" height="50" stroke="black" stroke-width="5" width="50" x="365.0" y="5" /><rect fill="blue" fill-opacity="0.25" height="50" stroke="blue" stroke-width="5" width="50" x="430.0" y="5" /><rect fill="red" fill-opacity="0.25" height="50" stroke="red" stroke-width="5" width="50" x="495.0" y="5" /><rect fill="red" fill-opacity="0.25" height="50" stroke="red" stroke-width="5" width="50" x="560.0" y="5" /><rect fill="green" fill-opacity="0.25" height="50" stroke="green" stroke-width="5" width="50" x="625.0" y="5" /><rect fill="green" fill-opacity="0.25" height="50" stroke="green" stroke-width="5" width="50" x="690.0" y="5" /><rect fill="black" fill-opacity="0.25" height="50" stroke="black" stroke-width="5" width="50" x="755.0" y="5" /><rect fill="blue" fill-opacity="0.25" height="50" stroke="blue" stroke-width="5" width="50" x="820.0" y="5" /><rect fill="blue" fill-opacity="0.25" height="50" stroke="blue" stroke-width="5" width="50" x="885.0" y="5" /><rect fill="red" fill-opacity="0.25" height="50" stroke="red" stroke-width="5" width="50" x="950.0" y="5" /><rect fill="blue" fill-opacity="0.25" height="50" stroke="blue" stroke-width="5" width="50" x="1015.0" y="5" /><rect fill="green" fill-opacity="0.25" height="50" stroke="green" stroke-width="5" width="50" x="1080.0" y="5" /><rect fill="green" fill-opacity="0.25" height="50" stroke="green" stroke-width="5" width="50" x="1145.0" y="5" /><rect fill="red" height="50" width="50" x="1210.0" y="5" /><rect fill="green" height="50" width="50" x="1275.0" y="5" /><rect fill="green" height="50" width="50" x="1340.0" y="5" /><rect fill="green" height="50" width="50" x="1405.0" y="5" /><line stroke="black" stroke-width="15" x1="1482.5" x2="1507.5" y1="25.0" y2="25.0" /><rect fill="black" height="50" width="50" x="1535.0" y="5" /><rect fill="blue" height="50" width="50" x="1600.0" y="5" /><rect fill="red" height="50" width="50" x="1665.0" y="5" /><rect fill="red" height="50" width="50" x="1730.0" y="5" /><rect fill="black" height="50" width="50" x="1795.0" y="5" /><rect fill="blue" height="50" width="50" x="1860.0" y="5" /><rect fill="blue" height="50" width="50" x="1925.0" y="5" /><rect fill="red" fill-opacity="0.25" height="50" stroke="red" stroke-width="5" width="50" x="1990.0" y="5" /><rect fill="red" fill-opacity="0.25" height="50" stroke="red" stroke-width="5" width="50" x="2055.0" y="5" /><rect fill="black" fill-opacity="0.25" height="50" stroke="black" stroke-width="5" width="50" x="2120.0" y="5" /><rect fill="green" fill-opacity="0.25" height="50" stroke="green" stroke-width="5" width="50" x="2185.0" y="5" /><rect fill="black" fill-opacity="0.25" height="50" stroke="black" stroke-width="5" width="50" x="2250.0" y="5" /><rect fill="red" height="50" width="50" x="2315.0" y="5" /><rect fill="black" fill-opacity="0.25" height="50" stroke="black" stroke-width="5" width="50" x="2380.0" y="5" /><rect fill="blue" fill-opacity="0.25" height="50" stroke="blue" stroke-width="5" width="50" x="2445.0" y="5" /><rect fill="red" fill-opacity="0.25" height="50" stroke="red" stroke-width="5" width="50" x="2510.0" y="5" /><rect fill="red" fill-opacity="0.25" height="50" stroke="red" stroke-width="5" width="50" x="2575.0" y="5" /><rect fill="blue" height="50" width="50" x="2640.0" y="5" /><rect fill="green" fill-opacity="0.25" height="50" stroke="green" stroke-width="5" width="50" x="2705.0" y="5" /><rect fill="green" fill-opacity="0.25" height="50" stroke="green" stroke-width="5" width="50" x="2770.0" y="5" /><rect fill="black" fill-opacity="0.25" height="50" stroke="black" stroke-width="5" width="50" x="2835.0" y="5" /><rect fill="red" fill-opacity="0.25" height="50" stroke="red" stroke-width="5" width="50" x="2900.0" y="5" /><rect fill="green" fill-opacity="0.25" height="50" stroke="green" stroke-width="5" width="50" x="2965.0" y="5" /><rect fill="black" fill-opacity="0.25" height="50" stroke="black" stroke-width="5" width="50" x="3030.0" y="5" /><rect fill="red" fill-opacity="0.25" height="50" stroke="red" stroke-width="5" width="50" x="3095.0" y="5" /><rect fill="black" fill-opacity="0.25" height="50" stroke="black" stroke-width="5" width="50" x="3160.0" y="5" /><line stroke="black" stroke-width="15" x1="3237.5" x2="3262.5" y1="25.0" y2="25.0" /><line stroke="black" stroke-width="15" x1="3302.5" x2="3327.5" y1="25.0" y2="25.0" /></svg>