<?xml version="1.0" encoding="utf-8" ?>
<svg baseProfile="full" height="1000" version="1.1" width="7500" xmlns="http://www.w3.org/2000/svg" xmlns:ev="http://www.w3.org/2001/xml-events" xmlns:xlink="http://www.w3.org/1999/xlink"><defs /><rect fill="white" height="11.904761904761903" width="100" x="0" y="0" /><rect fill="blue" height="488.0952380952381" width="100" x="0" y="11.904761904761903" /><rect fill="white" height="11.904761904761903" width="100" x="130.0" y="0" /><rect fill="green" height="452.3809523809524" width="100" x="130.0" y="11.904761904761903" /><rect fill="black" height="35.714285714285715" width="100" x="130.0" y="464.28571428571433" /><rect fill="blue" height="500.0" width="100" x="260.0" y="0" /><rect fill="red" height="500.0" width="100" x="390.0" y="0" /><rect fill="black" height="500.0" width="100" x="520.0" y="0" /><rect fill="blue" height="500.0" width="100" x="650.0" y="0" /><rect fill="red" height="500.0" width="100" x="780.0" y="0" /><rect fill="red" height="500.0" width="100" x="910.0" y="0" /><rect fill="green" height="488.0952380952381" width="100" x="1040.0" y="0" /><rect fill="black" height="11.904761904761903" width="100" x="1040.0" y="488.0952380952381" /><rect fill="green" height="488.0952380952381" width="100" x="1170.0" y="0" /><rect fill="black" height="11.904761904761903" width="100" x="1170.0" y="488.0952380952381" /><rect fill="green" height="11.904761904761903" width="100" x="1300.0" y="0" /><rect fill="black" height="452.3809523809524" width="100" x="1300.0" y="11.904761904761903" /><rect fill="blue" height="35.714285714285715" width="100" x="1300.0" y="464.28571428571433" /><rect fill="green" height="11.904761904761903" width="100" x="1430.0" y="0" /><rect fill="black" height="35.714285714285715" width="100" x="1430.0" y="11.904761904761903" /><rect fill="blue" height="452.3809523809524" width="100" x="1430.0" y="47.61904761904762" /><rect fill="black" height="11.904761904761903" width="100" x="1560.0" y="0" /><rect fill="blue" height="488.0952380952381" width="100" x="1560.0" y="11.904761904761903" /><rect fill="blue" height="11.904761904761903" width="100" x="1690.0" y="0" /><rect fill="red" height="488.0952380952381" width="100" x="1690.0" y="11.904761904761903" /><rect fill="blue" height="488.0952380952381" width="100" x="1820.0" y="0" /><rect fill="red" height="11.904761904761903" width="100" x="1820.0" y="488.0952380952381" /><rect fill="white" height="488.0952380952381" width="100" x="1950.0" y="0" /><rect fill="blue" height="11.904761904761903" width="100" x="1950.0" y="488.0952380952381" /><rect fill="green" height="500.0" width="100" x="2080.0" y="0" /><rect fill="green" height="500.0" width="100" x="2210.0" y="0" /><rect fill="red" height="500.0" width="100" x="2340.0" y="0" /><rect fill="green" height="500.0" width="100" x="2470.0" y="0" /><rect fill="green" height="500.0" width="100" x="2600.0" y="0" /><rect fill="green" height="500.0" width="100" x="2730.0" y="0" /><rect fill="white" height="440.4761904761905" width="100" x="2860.0" y="0" /><rect fill="green" height="47.61904761904761" width="100" x="2860.0" y="440.4761904761905" /><rect fill="black" height="11.904761904761903" width="100" x="2860.0" y="488.0952380952381" /><rect fill="black" height="488.0952380952381" width="100" x="2990.0" y="0" /><rect fill="blue" height="11.904761904761903" width="100" x="2990.0" y="488.0952380952381" /><rect fill="blue" height="488.0952380952381" width="100" x="3120.0" y="0" /><rect fill="red" height="11.904761904761903" width="100" x="3120.0" y="488.0952380952381" /><rect fill="red" height="500.0" width="100" x="3250.0" y="0" /><rect fill="black" height="11.904761904761903" width="100" x="3380.0" y="0" /><rect fill="red" height="488.0952380952381" width="100" x="3380.0" y="11.904761904761903" /><rect fill="black" height="488.0952380952381" width="100" x="3510.0" y="0" /><rect fill="blue" height="11.904761904761903" width="100" x="3510.0" y="488.0952380952381" /><rect fill="blue" height="500.0" width="100" x="3640.0" y="0" /><rect fill="blue" height="488.0952380952381" width="100" x="3770.0" y="0" /><rect fill="red" height="11.904761904761903" width="100" x="3770.0" y="488.0952380952381" /><rect fill="red" height="500.0" width="100" x="3900.0" y="0" /><rect fill="red" height="500.0" width="100" x="4030.0" y="0" /><rect fill="black" height="500.0" width="100" x="4160.0" y="0" /><rect fill="green" height="500.0" width="100" x="4290.0" y="0" /><rect fill="black" height="500.0" width="100" x="4420.0" y="0" /><rect fill="green" height="11.904761904761903" width="100" x="4550.0" y="0" /><rect fill="red" height="488.0952380952381" width="100" x="4550.0" y="11.904761904761903" /><rect fill="black" height="488.0952380952381" width="100" x="4680.0" y="0" /><rect fill="blue" height="11.904761904761903" width="100" x="4680.0" y="488.0952380952381" /><rect fill="green" height="59.52380952380952" width="100" x="4810.0" y="0" /><rect fill="blue" height="440.4761904761905" width="100" x="4810.0" y="59.52380952380952" /><rect fill="black" height="47.61904761904761" width="100" x="4940.0" y="0" /><rect fill="blue" height="23.809523809523807" width="100" x="4940.0" y="47.61904761904761" /><rect fill="red" height="428.57142857142856" width="100" x="4940.0" y="71.42857142857142" /><rect fill="green" height="71.42857142857143" width="100" x="5070.0" y="0" /><rect fill="blue" height="95.23809523809523" width="100" x="5070.0" y="71.42857142857143" /><rect fill="red" height="333.3333333333333" width="100" x="5070.0" y="166.66666666666666" /><rect fill="green" height="154.76190476190476" width="100" x="5200.0" y="0" /><rect fill="black" height="11.904761904761903" width="100" x="5200.0" y="154.76190476190476" /><rect fill="blue" height="142.85714285714286" width="100" x="5200.0" y="166.66666666666666" /><rect fill="red" height="190.47619047619045" width="100" x="5200.0" y="309.5238095238095" /><rect fill="green" height="440.4761904761905" width="100" x="5330.0" y="0" /><rect fill="black" height="35.714285714285715" width="100" x="5330.0" y="440.4761904761905" /><rect fill="blue" height="11.904761904761903" width="100" x="5330.0" y="476.1904761904762" /><rect fill="red" height="11.904761904761903" width="100" x="5330.0" y="488.09523809523813" /><rect fill="green" height="428.57142857142856" width="100" x="5460.0" y="0" /><rect fill="black" height="23.809523809523807" width="100" x="5460.0" y="428.57142857142856" /><rect fill="blue" height="47.61904761904761" width="100" x="5460.0" y="452.38095238095235" /><rect fill="green" height="47.61904761904761" width="100" x="5590.0" y="0" /><rect fill="black" height="428.57142857142856" width="100" x="5590.0" y="47.61904761904761" /><rect fill="red" height="23.809523809523807" width="100" x="5590.0" y="476.19047619047615" /><rect fill="green" height="11.904761904761903" width="100" x="5720.0" y="0" /><rect fill="black" height="59.52380952380952" width="100" x="5720.0" y="11.904761904761903" /><rect fill="blue" height="11.904761904761903" width="100" x="5720.0" y="71.42857142857142" /><rect fill="red" height="416.6666666666667" width="100" x="5720.0" y="83.33333333333331" /><rect fill="green" height="380.9523809523809" width="100" x="5850.0" y="0" /><rect fill="black" height="83.33333333333333" width="100" x="5850.0" y="380.9523809523809" /><rect fill="red" height="35.714285714285715" width="100" x="5850.0" y="464.2857142857142" /><rect fill="black" height="464.2857142857143" width="100" x="5980.0" y="0" /><rect fill="red" height="35.714285714285715" width="100" x="5980.0" y="464.2857142857143" /><rect fill="white" height="47.61904761904761" width="100" x="6110.0" y="0" /><rect fill="green" height="11.904761904761903" width="100" x="6110.0" y="47.61904761904761" /><rect fill="black" height="23.809523809523807" width="100" x="6110.0" y="59.52380952380952" /><rect fill="red" height="416.6666666666667" width="100" x="6110.0" y="83.33333333333333" /><rect fill="white" height="71.42857142857143" width="100" x="6240.0" y="0" /><rect fill="black" height="428.57142857142856" width="100" x="6240.0" y="71.42857142857143" /><rect fill="white" height="488.0952380952381" width="100" x="6370.0" y="0" /><rect fill="red" height="11.904761904761903" width="100" x="6370.0" y="488.0952380952381" /><rect fill="white" height="488.0952380952381" width="100" x="6500.0" y="0" /><rect fill="black" height="11.904761904761903" width="100" x="6500.0" y="488.0952380952381" /></svg>