<?xml version="1.0" encoding="utf-8" ?>
<svg baseProfile="full" height="1000" version="1.1" width="7500" xmlns="http://www.w3.org/2000/svg" xmlns:ev="http://www.w3.org/2001/xml-events" xmlns:xlink="http://www.w3.org/1999/xlink"><defs /><rect fill="white" height="473.6842105263158" width="100" x="0" y="0" /><rect fill="blue" height="26.31578947368421" width="100" x="0" y="473.6842105263158" /><rect fill="white" height="6.578947368421052" width="100" x="130.0" y="0" /><rect fill="green" height="26.31578947368421" width="100" x="130.0" y="6.578947368421052" /><rect fill="blue" height="467.10526315789474" width="100" x="130.0" y="32.89473684210526" /><rect fill="white" height="6.578947368421052" width="100" x="260.0" y="0" /><rect fill="green" height="434.2105263157895" width="100" x="260.0" y="6.578947368421052" /><rect fill="black" height="32.89473684210526" width="100" x="260.0" y="440.7894736842105" /><rect fill="blue" height="26.31578947368421" width="100" x="260.0" y="473.6842105263158" /><rect fill="blue" height="473.6842105263158" width="100" x="390.0" y="0" /><rect fill="red" height="26.31578947368421" width="100" x="390.0" y="473.6842105263158" /><rect fill="black" height="26.31578947368421" width="100" x="520.0" y="0" /><rect fill="red" height="473.6842105263158" width="100" x="520.0" y="26.31578947368421" /><rect fill="black" height="473.6842105263158" width="100" x="650.0" y="0" /><rect fill="blue" height="19.736842105263158" width="100" x="650.0" y="473.6842105263158" /><rect fill="red" height="6.578947368421052" width="100" x="650.0" y="493.42105263157896" /><rect fill="blue" height="480.2631578947368" width="100" x="780.0" y="0" /><rect fill="red" height="19.736842105263158" width="100" x="780.0" y="480.2631578947368" /><rect fill="red" height="500.0" width="100" x="910.0" y="0" /><rect fill="green" height="13.157894736842104" width="100" x="1040.0" y="0" /><rect fill="black" height="6.578947368421052" width="100" x="1040.0" y="13.157894736842104" /><rect fill="red" height="480.2631578947368" width="100" x="1040.0" y="19.736842105263158" /><rect fill="green" height="480.2631578947368" width="100" x="1170.0" y="0" /><rect fill="black" height="13.157894736842104" width="100" x="1170.0" y="480.2631578947368" /><rect fill="blue" height="6.578947368421052" width="100" x="1170.0" y="493.4210526315789" /><rect fill="green" height="500.0" width="100" x="1300.0" y="0" /><rect fill="green" height="6.578947368421052" width="100" x="1430.0" y="0" /><rect fill="black" height="453.94736842105266" width="100" x="1430.0" y="6.578947368421052" /><rect fill="blue" height="32.89473684210526" width="100" x="1430.0" y="460.5263157894737" /><rect fill="red" height="6.578947368421052" width="100" x="1430.0" y="493.42105263157896" /><rect fill="black" height="39.473684210526315" width="100" x="1560.0" y="0" /><rect fill="blue" height="460.5263157894737" width="100" x="1560.0" y="39.473684210526315" /><rect fill="blue" height="500.0" width="100" x="1690.0" y="0" /><rect fill="red" height="500.0" width="100" x="1820.0" y="0" /><rect fill="blue" height="500.0" width="100" x="1950.0" y="0" /><rect fill="green" height="500.0" width="100" x="2080.0" y="0" /><rect fill="green" height="500.0" width="100" x="2210.0" y="0" /><rect fill="red" height="500.0" width="100" x="2340.0" y="0" /><rect fill="green" height="500.0" width="100" x="2470.0" y="0" /><rect fill="green" height="500.0" width="100" x="2600.0" y="0" /><rect fill="green" height="500.0" width="100" x="2730.0" y="0" /><rect fill="white" height="453.94736842105266" width="100" x="2860.0" y="0" /><rect fill="green" height="39.473684210526315" width="100" x="2860.0" y="453.94736842105266" /><rect fill="black" height="6.578947368421052" width="100" x="2860.0" y="493.42105263157896" /><rect fill="black" height="493.4210526315789" width="100" x="2990.0" y="0" /><rect fill="blue" height="6.578947368421052" width="100" x="2990.0" y="493.4210526315789" /><rect fill="blue" height="493.4210526315789" width="100" x="3120.0" y="0" /><rect fill="red" height="6.578947368421052" width="100" x="3120.0" y="493.4210526315789" /><rect fill="red" height="500.0" width="100" x="3250.0" y="0" /><rect fill="black" height="6.578947368421052" width="100" x="3380.0" y="0" /><rect fill="red" height="493.4210526315789" width="100" x="3380.0" y="6.578947368421052" /><rect fill="black" height="493.4210526315789" width="100" x="3510.0" y="0" /><rect fill="blue" height="6.578947368421052" width="100" x="3510.0" y="493.4210526315789" /><rect fill="blue" height="500.0" width="100" x="3640.0" y="0" /><rect fill="blue" height="493.4210526315789" width="100" x="3770.0" y="0" /><rect fill="red" height="6.578947368421052" width="100" x="3770.0" y="493.4210526315789" /><rect fill="red" height="500.0" width="100" x="3900.0" y="0" /><rect fill="red" height="500.0" width="100" x="4030.0" y="0" /><rect fill="black" height="500.0" width="100" x="4160.0" y="0" /><rect fill="green" height="500.0" width="100" x="4290.0" y="0" /><rect fill="black" height="500.0" width="100" x="4420.0" y="0" /><rect fill="green" height="13.157894736842104" width="100" x="4550.0" y="0" /><rect fill="red" height="486.8421052631579" width="100" x="4550.0" y="13.157894736842104" /><rect fill="green" height="13.157894736842104" width="100" x="4680.0" y="0" /><rect fill="black" height="480.2631578947368" width="100" x="4680.0" y="13.157894736842104" /><rect fill="blue" height="6.578947368421052" width="100" x="4680.0" y="493.4210526315789" /><rect fill="green" height="52.63157894736842" width="100" x="4810.0" y="0" /><rect fill="blue" height="447.36842105263156" width="100" x="4810.0" y="52.63157894736842" /><rect fill="green" height="13.157894736842104" width="100" x="4940.0" y="0" /><rect fill="black" height="39.473684210526315" width="100" x="4940.0" y="13.157894736842104" /><rect fill="blue" height="19.736842105263158" width="100" x="4940.0" y="52.63157894736842" /><rect fill="red" height="427.63157894736844" width="100" x="4940.0" y="72.36842105263158" /><rect fill="green" height="59.21052631578947" width="100" x="5070.0" y="0" /><rect fill="blue" height="111.84210526315789" width="100" x="5070.0" y="59.21052631578947" /><rect fill="red" height="328.94736842105266" width="100" x="5070.0" y="171.05263157894737" /><rect fill="green" height="138.1578947368421" width="100" x="5200.0" y="0" /><rect fill="black" height="6.578947368421052" width="100" x="5200.0" y="138.1578947368421" /><rect fill="blue" height="164.47368421052633" width="100" x="5200.0" y="144.73684210526315" /><rect fill="red" height="190.78947368421055" width="100" x="5200.0" y="309.2105263157895" /><rect fill="green" height="447.36842105263156" width="100" x="5330.0" y="0" /><rect fill="black" height="39.473684210526315" width="100" x="5330.0" y="447.36842105263156" /><rect fill="blue" height="6.578947368421052" width="100" x="5330.0" y="486.84210526315786" /><rect fill="red" height="6.578947368421052" width="100" x="5330.0" y="493.4210526315789" /><rect fill="green" height="434.2105263157895" width="100" x="5460.0" y="0" /><rect fill="black" height="26.31578947368421" width="100" x="5460.0" y="434.2105263157895" /><rect fill="blue" height="39.473684210526315" width="100" x="5460.0" y="460.5263157894737" /><rect fill="green" height="39.473684210526315" width="100" x="5590.0" y="0" /><rect fill="black" height="434.2105263157895" width="100" x="5590.0" y="39.473684210526315" /><rect fill="red" height="26.31578947368421" width="100" x="5590.0" y="473.6842105263158" /><rect fill="green" height="6.578947368421052" width="100" x="5720.0" y="0" /><rect fill="black" height="59.21052631578947" width="100" x="5720.0" y="6.578947368421052" /><rect fill="blue" height="6.578947368421052" width="100" x="5720.0" y="65.78947368421052" /><rect fill="red" height="427.63157894736844" width="100" x="5720.0" y="72.36842105263158" /><rect fill="green" height="388.1578947368421" width="100" x="5850.0" y="0" /><rect fill="black" height="78.94736842105263" width="100" x="5850.0" y="388.1578947368421" /><rect fill="red" height="32.89473684210526" width="100" x="5850.0" y="467.1052631578947" /><rect fill="black" height="467.10526315789474" width="100" x="5980.0" y="0" /><rect fill="red" height="32.89473684210526" width="100" x="5980.0" y="467.10526315789474" /><rect fill="white" height="39.473684210526315" width="100" x="6110.0" y="0" /><rect fill="green" height="6.578947368421052" width="100" x="6110.0" y="39.473684210526315" /><rect fill="black" height="26.31578947368421" width="100" x="6110.0" y="46.05263157894737" /><rect fill="red" height="427.63157894736844" width="100" x="6110.0" y="72.36842105263158" /><rect fill="white" height="65.78947368421052" width="100" x="6240.0" y="0" /><rect fill="black" height="434.2105263157895" width="100" x="6240.0" y="65.78947368421052" /><rect fill="white" height="493.4210526315789" width="100" x="6370.0" y="0" /><rect fill="red" height="6.578947368421052" width="100" x="6370.0" y="493.4210526315789" /><rect fill="white" height="493.4210526315789" width="100" x="6500.0" y="0" /><rect fill="black" height="6.578947368421052" width="100" x="6500.0" y="493.4210526315789" /></svg>