<?xml version="1.0" encoding="utf-8" ?>
<svg baseProfile="full" height="1000" version="1.1" width="7500" xmlns="http://www.w3.org/2000/svg" xmlns:ev="http://www.w3.org/2001/xml-events" xmlns:xlink="http://www.w3.org/1999/xlink"><defs /><rect fill="white" height="18.51851851851852" width="100" x="0" y="0" /><rect fill="blue" height="481.48148148148147" width="100" x="0" y="18.51851851851852" /><rect fill="white" height="18.51851851851852" width="100" x="130.0" y="0" /><rect fill="green" height="481.48148148148147" width="100" x="130.0" y="18.51851851851852" /><rect fill="blue" height="500.0" width="100" x="260.0" y="0" /><rect fill="red" height="500.0" width="100" x="390.0" y="0" /><rect fill="black" height="500.0" width="100" x="520.0" y="0" /><rect fill="blue" height="500.0" width="100" x="650.0" y="0" /><rect fill="red" height="500.0" width="100" x="780.0" y="0" /><rect fill="red" height="500.0" width="100" x="910.0" y="0" /><rect fill="green" height="462.962962962963" width="100" x="1040.0" y="0" /><rect fill="black" height="37.03703703703704" width="100" x="1040.0" y="462.962962962963" /><rect fill="green" height="462.962962962963" width="100" x="1170.0" y="0" /><rect fill="black" height="37.03703703703704" width="100" x="1170.0" y="462.962962962963" /><rect fill="green" height="37.03703703703704" width="100" x="1300.0" y="0" /><rect fill="black" height="462.962962962963" width="100" x="1300.0" y="37.03703703703704" /><rect fill="green" height="37.03703703703704" width="100" x="1430.0" y="0" /><rect fill="blue" height="462.962962962963" width="100" x="1430.0" y="37.03703703703704" /><rect fill="black" height="37.03703703703704" width="100" x="1560.0" y="0" /><rect fill="blue" height="462.962962962963" width="100" x="1560.0" y="37.03703703703704" /><rect fill="blue" height="37.03703703703704" width="100" x="1690.0" y="0" /><rect fill="red" height="462.962962962963" width="100" x="1690.0" y="37.03703703703704" /><rect fill="blue" height="462.962962962963" width="100" x="1820.0" y="0" /><rect fill="red" height="37.03703703703704" width="100" x="1820.0" y="462.962962962963" /><rect fill="white" height="462.962962962963" width="100" x="1950.0" y="0" /><rect fill="blue" height="37.03703703703704" width="100" x="1950.0" y="462.962962962963" /><rect fill="green" height="500.0" width="100" x="2080.0" y="0" /><rect fill="green" height="500.0" width="100" x="2210.0" y="0" /><rect fill="red" height="500.0" width="100" x="2340.0" y="0" /><rect fill="green" height="500.0" width="100" x="2470.0" y="0" /><rect fill="green" height="500.0" width="100" x="2600.0" y="0" /><rect fill="green" height="500.0" width="100" x="2730.0" y="0" /><rect fill="black" height="500.0" width="100" x="2860.0" y="0" /><rect fill="blue" height="500.0" width="100" x="2990.0" y="0" /><rect fill="red" height="500.0" width="100" x="3120.0" y="0" /><rect fill="red" height="500.0" width="100" x="3250.0" y="0" /><rect fill="black" height="500.0" width="100" x="3380.0" y="0" /><rect fill="blue" height="500.0" width="100" x="3510.0" y="0" /><rect fill="blue" height="500.0" width="100" x="3640.0" y="0" /><rect fill="red" height="500.0" width="100" x="3770.0" y="0" /><rect fill="red" height="500.0" width="100" x="3900.0" y="0" /><rect fill="black" height="500.0" width="100" x="4030.0" y="0" /><rect fill="green" height="500.0" width="100" x="4160.0" y="0" /><rect fill="black" height="500.0" width="100" x="4290.0" y="0" /><rect fill="red" height="500.0" width="100" x="4420.0" y="0" /><rect fill="green" height="37.03703703703704" width="100" x="4550.0" y="0" /><rect fill="black" height="462.962962962963" width="100" x="4550.0" y="37.03703703703704" /><rect fill="green" height="55.55555555555555" width="100" x="4680.0" y="0" /><rect fill="blue" height="444.4444444444444" width="100" x="4680.0" y="55.55555555555555" /><rect fill="black" height="37.03703703703704" width="100" x="4810.0" y="0" /><rect fill="blue" height="37.03703703703704" width="100" x="4810.0" y="37.03703703703704" /><rect fill="red" height="425.9259259259259" width="100" x="4810.0" y="74.07407407407408" /><rect fill="green" height="37.03703703703704" width="100" x="4940.0" y="0" /><rect fill="blue" height="92.59259259259258" width="100" x="4940.0" y="37.03703703703704" /><rect fill="red" height="370.3703703703703" width="100" x="4940.0" y="129.62962962962962" /><rect fill="green" height="92.59259259259258" width="100" x="5070.0" y="0" /><rect fill="black" height="18.51851851851852" width="100" x="5070.0" y="92.59259259259258" /><rect fill="blue" height="222.2222222222222" width="100" x="5070.0" y="111.1111111111111" /><rect fill="red" height="166.66666666666666" width="100" x="5070.0" y="333.3333333333333" /><rect fill="green" height="481.48148148148147" width="100" x="5200.0" y="0" /><rect fill="red" height="18.51851851851852" width="100" x="5200.0" y="481.48148148148147" /><rect fill="green" height="481.48148148148147" width="100" x="5330.0" y="0" /><rect fill="blue" height="18.51851851851852" width="100" x="5330.0" y="481.48148148148147" /><rect fill="green" height="18.51851851851852" width="100" x="5460.0" y="0" /><rect fill="black" height="481.48148148148147" width="100" x="5460.0" y="18.51851851851852" /><rect fill="green" height="18.51851851851852" width="100" x="5590.0" y="0" /><rect fill="blue" height="37.03703703703704" width="100" x="5590.0" y="18.51851851851852" /><rect fill="red" height="444.4444444444444" width="100" x="5590.0" y="55.55555555555556" /><rect fill="green" height="425.9259259259259" width="100" x="5720.0" y="0" /><rect fill="black" height="74.07407407407408" width="100" x="5720.0" y="425.9259259259259" /><rect fill="black" height="481.48148148148147" width="100" x="5850.0" y="0" /><rect fill="red" height="18.51851851851852" width="100" x="5850.0" y="481.48148148148147" /><rect fill="white" height="18.51851851851852" width="100" x="5980.0" y="0" /><rect fill="green" height="18.51851851851852" width="100" x="5980.0" y="18.51851851851852" /><rect fill="red" height="462.962962962963" width="100" x="5980.0" y="37.03703703703704" /><rect fill="white" height="18.51851851851852" width="100" x="6110.0" y="0" /><rect fill="black" height="481.48148148148147" width="100" x="6110.0" y="18.51851851851852" /><rect fill="white" height="481.48148148148147" width="100" x="6240.0" y="0" /><rect fill="red" height="18.51851851851852" width="100" x="6240.0" y="481.48148148148147" /><rect fill="white" height="481.48148148148147" width="100" x="6370.0" y="0" /><rect fill="black" height="18.51851851851852" width="100" x="6370.0" y="481.48148148148147" /></svg>