<?xml version="1.0" encoding="utf-8" ?>
<svg baseProfile="full" height="150" version="1.1" width="2500" xmlns="http://www.w3.org/2000/svg" xmlns:ev="http://www.w3.org/2001/xml-events" xmlns:xlink="http://www.w3.org/1999/xlink"><defs /><text x="0" y="135.0">0</text><rect fill="gray" height="2.4736147757255993" width="10" x="0" y="0" /><rect fill="#3e4b94" height="72.42744063324538" width="10" x="0" y="2.4736147757255993" /><rect fill="#852a2a" height="0.09894459102902374" width="10" x="0" y="74.90105540897098" /><text x="25.0" y="135.0">1</text><rect fill="gray" height="3.3641160949868048" width="10" x="25.0" y="0" /><rect fill="#f5c31d" height="68.07387862796834" width="10" x="25.0" y="3.3641160949868048" /><rect fill="#3e4b94" height="0.09894459102902374" width="10" x="25.0" y="71.43799472295514" /><rect fill="#852a2a" height="3.463060686015831" width="10" x="25.0" y="71.53693931398416" /><text x="50.0" y="135.0">2</text><rect fill="gray" height="3.0672823218997336" width="10" x="50.0" y="0" /><rect fill="#3e4b94" height="71.73482849604221" width="10" x="50.0" y="3.0672823218997336" /><rect fill="#852a2a" height="0.19788918205804748" width="10" x="50.0" y="74.80211081794195" /><text x="75.0" y="135.0">3</text><rect fill="gray" height="1.9788918205804695" width="10" x="75.0" y="0" /><rect fill="#f5c31d" height="62.434036939313984" width="10" x="75.0" y="1.9788918205804695" /><rect fill="#3e4b94" height="0.19788918205804748" width="10" x="75.0" y="64.41292875989446" /><rect fill="#852a2a" height="10.389182058047494" width="10" x="75.0" y="64.6108179419525" /><text x="100.0" y="135.0">4</text><rect fill="gray" height="2.6715039577836412" width="10" x="100.0" y="0" /><rect fill="#f5c31d" height="0.09894459102902374" width="10" x="100.0" y="2.6715039577836412" /><rect fill="#3e4b94" height="8.014511873350923" width="10" x="100.0" y="2.770448548812665" /><rect fill="#852a2a" height="64.21503957783641" width="10" x="100.0" y="10.784960422163588" /><text x="125.0" y="135.0">5</text><rect fill="gray" height="3.463060686015834" width="10" x="125.0" y="0" /><rect fill="#3e4b94" height="71.53693931398416" width="10" x="125.0" y="3.463060686015834" /><text x="150.0" y="135.0">6</text><rect fill="gray" height="2.176781002638528" width="10" x="150.0" y="0" /><rect fill="#f5c31d" height="72.62532981530343" width="10" x="150.0" y="2.176781002638528" /><rect fill="#3e4b94" height="0.09894459102902374" width="10" x="150.0" y="74.80211081794197" /><rect fill="#852a2a" height="0.09894459102902374" width="10" x="150.0" y="74.90105540897099" /><text x="175.0" y="135.0">7</text><rect fill="gray" height="4.056728232189968" width="10" x="175.0" y="0" /><rect fill="#f5c31d" height="67.77704485488127" width="10" x="175.0" y="4.056728232189968" /><rect fill="#852a2a" height="3.1662269129287597" width="10" x="175.0" y="71.83377308707124" /><text x="200.0" y="135.0">8</text><rect fill="gray" height="52.73746701846966" width="10" x="200.0" y="0" /><rect fill="#f5c31d" height="21.17414248021108" width="10" x="200.0" y="52.73746701846966" /><rect fill="#3e4b94" height="0.6926121372031663" width="10" x="200.0" y="73.91160949868075" /><rect fill="#852a2a" height="0.39577836411609496" width="10" x="200.0" y="74.60422163588392" /><text x="225.0" y="135.0">9</text><rect fill="gray" height="18.60158311345646" width="10" x="225.0" y="0" /><rect fill="#f5c31d" height="55.8047493403694" width="10" x="225.0" y="18.60158311345646" /><rect fill="#3e4b94" height="0.09894459102902374" width="10" x="225.0" y="74.40633245382585" /><rect fill="#852a2a" height="0.49472295514511877" width="10" x="225.0" y="74.50527704485488" /><text x="250.0" y="135.0">10</text><rect fill="gray" height="16.12796833773087" width="10" x="250.0" y="0" /><rect fill="#f5c31d" height="56.10158311345647" width="10" x="250.0" y="16.12796833773087" /><rect fill="#3e4b94" height="1.187335092348285" width="10" x="250.0" y="72.22955145118735" /><rect fill="#852a2a" height="1.5831134564643798" width="10" x="250.0" y="73.41688654353564" /><text x="275.0" y="135.0">11</text><rect fill="gray" height="7.915567282321903" width="10" x="275.0" y="0" /><rect fill="#f5c31d" height="0.09894459102902374" width="10" x="275.0" y="7.915567282321903" /><rect fill="#3e4b94" height="66.688654353562" width="10" x="275.0" y="8.014511873350926" /><rect fill="#852a2a" height="0.29683377308707126" width="10" x="275.0" y="74.70316622691293" /><text x="300.0" y="135.0">12</text><rect fill="gray" height="3.9577836411609555" width="10" x="300.0" y="0" /><rect fill="#f5c31d" height="0.09894459102902374" width="10" x="300.0" y="3.9577836411609555" /><rect fill="#3e4b94" height="70.64643799472296" width="10" x="300.0" y="4.056728232189979" /><rect fill="#852a2a" height="0.29683377308707126" width="10" x="300.0" y="74.70316622691294" /><text x="325.0" y="135.0">13</text><rect fill="gray" height="69.65699208443272" width="10" x="325.0" y="0" /><rect fill="#f5c31d" height="0.8905013192612137" width="10" x="325.0" y="69.65699208443272" /><rect fill="#3e4b94" height="0.19788918205804748" width="10" x="325.0" y="70.54749340369393" /><rect fill="#852a2a" height="4.254617414248021" width="10" x="325.0" y="70.74538258575198" /><text x="350.0" y="135.0">14</text><rect fill="gray" height="2.1767810026385197" width="10" x="350.0" y="0" /><rect fill="#f5c31d" height="0.19788918205804748" width="10" x="350.0" y="2.1767810026385197" /><rect fill="#3e4b94" height="72.5263852242744" width="10" x="350.0" y="2.374670184696567" /><rect fill="#852a2a" height="0.09894459102902374" width="10" x="350.0" y="74.90105540897098" /><text x="375.0" y="135.0">15</text><rect fill="gray" height="2.4736147757255993" width="10" x="375.0" y="0" /><rect fill="#f5c31d" height="72.42744063324538" width="10" x="375.0" y="2.4736147757255993" /><rect fill="#3e4b94" height="0.09894459102902374" width="10" x="375.0" y="74.90105540897098" /><text x="400.0" y="135.0">16</text><rect fill="gray" height="2.37467018469657" width="10" x="400.0" y="0" /><rect fill="#3e4b94" height="72.32849604221636" width="10" x="400.0" y="2.37467018469657" /><rect fill="#852a2a" height="0.29683377308707126" width="10" x="400.0" y="74.70316622691293" /><text x="425.0" y="135.0">17</text><rect fill="gray" height="2.6715039577836412" width="10" x="425.0" y="0" /><rect fill="#f5c31d" height="72.03166226912928" width="10" x="425.0" y="2.6715039577836412" /><rect fill="#3e4b94" height="0.09894459102902374" width="10" x="425.0" y="74.70316622691293" /><rect fill="#852a2a" height="0.19788918205804748" width="10" x="425.0" y="74.80211081794195" /><text x="450.0" y="135.0">18</text><rect fill="gray" height="3.166226912928763" width="10" x="450.0" y="0" /><rect fill="#f5c31d" height="71.33905013192613" width="10" x="450.0" y="3.166226912928763" /><rect fill="#3e4b94" height="0.09894459102902374" width="10" x="450.0" y="74.50527704485489" /><rect fill="#852a2a" height="0.39577836411609496" width="10" x="450.0" y="74.60422163588392" /><text x="475.0" y="135.0">19</text><rect fill="gray" height="73.31794195250659" width="10" x="475.0" y="0" /><rect fill="#f5c31d" height="0.7915567282321899" width="10" x="475.0" y="73.31794195250659" /><rect fill="#3e4b94" height="0.7915567282321899" width="10" x="475.0" y="74.10949868073878" /><rect fill="#852a2a" height="0.09894459102902374" width="10" x="475.0" y="74.90105540897098" /><text x="500.0" y="135.0">20</text><rect fill="gray" height="73.51583113456465" width="10" x="500.0" y="0" /><rect fill="#f5c31d" height="0.49472295514511877" width="10" x="500.0" y="73.51583113456465" /><rect fill="#3e4b94" height="0.6926121372031663" width="10" x="500.0" y="74.01055408970977" /><rect fill="#852a2a" height="0.29683377308707126" width="10" x="500.0" y="74.70316622691294" /><text x="525.0" y="135.0">21</text><rect fill="gray" height="73.21899736147758" width="10" x="525.0" y="0" /><rect fill="#f5c31d" height="0.5936675461741425" width="10" x="525.0" y="73.21899736147758" /><rect fill="#3e4b94" height="0.8905013192612137" width="10" x="525.0" y="73.81266490765172" /><rect fill="#852a2a" height="0.29683377308707126" width="10" x="525.0" y="74.70316622691294" /><text x="550.0" y="135.0">22</text><rect fill="gray" height="2.968337730870721" width="10" x="550.0" y="0" /><rect fill="#f5c31d" height="71.83377308707124" width="10" x="550.0" y="2.968337730870721" /><rect fill="#3e4b94" height="0.09894459102902374" width="10" x="550.0" y="74.80211081794195" /><rect fill="#852a2a" height="0.09894459102902374" width="10" x="550.0" y="74.90105540897098" /><text x="575.0" y="135.0">23</text><rect fill="gray" height="2.275725593667541" width="10" x="575.0" y="0" /><rect fill="#f5c31d" height="1.7810026385224274" width="10" x="575.0" y="2.275725593667541" /><rect fill="#3e4b94" height="0.49472295514511877" width="10" x="575.0" y="4.056728232189968" /><rect fill="#852a2a" height="70.44854881266491" width="10" x="575.0" y="4.551451187335087" /><text x="600.0" y="135.0">24</text><rect fill="gray" height="73.12005277044855" width="10" x="600.0" y="0" /><rect fill="#f5c31d" height="0.29683377308707126" width="10" x="600.0" y="73.12005277044855" /><rect fill="#3e4b94" height="1.5831134564643798" width="10" x="600.0" y="73.41688654353563" /></svg>